# xmcd
#
# Track frame offsets:
#	150
#	24917
#	54897
#	105033
#	121173
#	136089
#	163996
#
# Disc length: 2580 seconds
#
# Revision: 1
# Processed by: cddbd v1.5.1PL2 Copyright (c) Steve Scherf et al.
# Submitted via: EasyCDDAExtractor 9.0.0.1
#
DISCID=460a1207
DTITLE=Blue Oyster Cult - Academy Of Music New York City 31-12-73
DYEAR=1973
DGENRE=Hard Rock
TTITLE0=Dominace And Submission
TTITLE1=Astronomy
TTITLE2=ME 262
TTITLE3=Stairway To The Stars
TTITLE4=Transmaniacon MC
TTITLE5=Born To Be Wild
TTITLE6=Buck's Boogie
EXTD=
EXTT0=
EXTT1=
EXTT2=
EXTT3=
EXTT4=
EXTT5=
EXTT6=
PLAYORDER=
